<?xml version="1.0" standalone="no"?>
<!DOCTYPE svg PUBLIC "-//W3C//DTD SVG 20010904//EN"
 "http://www.w3.org/TR/2001/REC-SVG-20010904/DTD/svg10.dtd">
<svg version="1.0" xmlns="http://www.w3.org/2000/svg"
 width="600.000000pt" height="600.000000pt" viewBox="0 0 600.000000 600.000000"
 preserveAspectRatio="xMidYMid meet">

<g transform="translate(0.000000,600.000000) scale(0.100000,-0.100000)"
fill="#000000" stroke="none">
<path d="M2847 5448 c-161 -190 -326 -513 -426 -833 -108 -345 -158 -659 -168
-1057 l-6 -228 645 0 646 0 6 23 c17 63 -3 480 -34 699 -67 474 -212 888 -427
1218 -62 94 -170 230 -183 230 -5 0 -28 -24 -53 -52z"/>
<path d="M5486 5130 c-63 -25 -138 -98 -168 -164 -16 -37 -22 -70 -22 -121 0
-94 29 -159 100 -224 238 -218 606 33 492 336 -57 153 -246 234 -402 173z
m243 -66 c180 -98 175 -356 -10 -449 -134 -68 -305 2 -354 144 -48 140 28 284
175 332 46 15 135 3 189 -27z"/>
<path d="M5473 4843 l2 -168 30 0 30 0 3 68 c3 67 3 67 32 67 24 0 36 -10 69
-57 22 -32 45 -64 51 -70 12 -14 80 -18 80 -5 0 12 -72 116 -87 125 -20 12
-16 24 12 31 31 8 60 64 51 99 -3 13 -14 35 -25 48 -18 22 -27 24 -135 27
l-115 4 2 -169z m195 95 c34 -34 -3 -68 -74 -68 l-54 0 0 40 0 40 58 0 c32 0
63 -5 70 -12z"/>
<path d="M95 4368 c31 -292 110 -621 213 -890 l56 -148 783 0 c431 0 783 3
783 8 0 11 -111 156 -192 250 -292 341 -726 601 -1251 751 -112 32 -366 91
-393 91 -3 0 -3 -28 1 -62z"/>
<path d="M5623 4405 c-493 -91 -891 -262 -1258 -538 -138 -104 -410 -387 -489
-509 l-18 -28 799 0 799 0 11 28 c6 15 26 61 43 102 69 163 146 419 189 635
25 126 54 312 49 323 -1 5 -58 -1 -125 -13z"/>
<path d="M490 3006 c0 -12 76 -150 124 -224 l40 -62 2250 2 2250 3 28 40 c39
55 88 141 115 197 l22 48 -2414 2 c-1379 2 -2415 -1 -2415 -6z"/>
<path d="M880 2410 c0 -18 82 -100 177 -176 l93 -75 1738 -6 1738 -6 69 58
c83 69 215 196 215 207 0 5 -907 8 -2015 8 -1366 0 -2015 -3 -2015 -10z"/>
<path d="M1559 1891 c64 -49 351 -178 541 -244 154 -53 445 -125 457 -114 5 6
-17 226 -34 340 l-6 37 -491 0 c-477 0 -490 -1 -467 -19z"/>
<path d="M2620 1905 c0 -38 227 -370 272 -399 20 -12 21 -12 108 118 33 49 83
133 110 188 l51 98 -271 0 c-148 0 -270 -2 -270 -5z"/>
<path d="M3275 1898 c-9 -27 -55 -341 -51 -345 6 -6 142 21 286 57 229 58 560
184 705 270 l50 30 -493 0 c-385 0 -494 -3 -497 -12z"/>
<path d="M4229 1227 c-65 -43 -83 -122 -43 -185 56 -86 194 -78 239 15 21 43
19 78 -7 125 -40 70 -123 90 -189 45z m125 -14 c35 -16 66 -63 66 -98 0 -56
-59 -115 -115 -115 -114 0 -157 160 -57 214 36 20 64 20 106 -1z"/>
<path d="M4247 1183 c-4 -3 -7 -37 -7 -75 0 -54 3 -68 15 -68 10 0 15 10 15
30 0 19 5 30 14 30 8 0 24 -13 36 -30 12 -16 28 -30 36 -30 18 0 18 5 -2 36
-15 23 -15 26 0 43 20 22 20 35 0 55 -15 16 -94 23 -107 9z m88 -33 c7 -12
-42 -33 -56 -24 -5 3 -9 12 -9 20 0 16 55 20 65 4z"/>
<path d="M2360 1039 c0 -92 -2 -101 -17 -94 -61 25 -126 45 -146 45 -59 0
-132 -32 -176 -77 -54 -57 -71 -97 -71 -171 0 -184 187 -297 353 -214 l56 28
3 -25 c3 -24 7 -26 53 -26 l50 0 3 318 2 317 -55 0 -55 0 0 -101z m-84 -174
c62 -40 83 -137 44 -200 -58 -94 -213 -80 -256 23 -28 68 3 148 71 183 46 23
100 21 141 -6z"/>
<path d="M2530 1085 l0 -55 60 0 60 0 0 55 0 55 -60 0 -60 0 0 -55z"/>
<path d="M3090 1039 c0 -93 -1 -100 -17 -94 -10 5 -43 17 -73 28 -95 33 -193
7 -260 -69 -44 -51 -60 -93 -60 -162 0 -136 106 -242 242 -242 52 0 129 27
142 49 12 19 26 12 26 -14 0 -24 3 -25 55 -25 l55 0 0 315 0 315 -55 0 -55 0
0 -101z m-107 -163 c53 -22 87 -70 87 -123 0 -88 -48 -143 -131 -151 -38 -3
-56 0 -85 18 -38 24 -73 85 -74 128 0 44 37 98 82 121 50 25 76 26 121 7z"/>
<path d="M1590 1000 c-145 -28 -233 -184 -188 -332 16 -54 88 -132 140 -153
59 -23 145 -22 202 3 45 21 46 21 46 1 0 -16 7 -19 55 -19 l55 0 0 245 0 245
-55 0 c-44 0 -55 -3 -55 -16 0 -9 -3 -14 -7 -12 -72 37 -136 50 -193 38z m146
-141 c57 -53 67 -106 34 -174 -25 -51 -65 -75 -125 -75 -59 0 -101 24 -126 72
-40 78 -10 162 71 200 8 4 39 6 68 5 38 -3 59 -10 78 -28z"/>
<path d="M3417 996 c-65 -18 -116 -61 -150 -127 -26 -48 -28 -62 -25 -130 5
-81 21 -119 75 -174 65 -65 184 -85 272 -45 53 24 51 24 51 2 0 -18 9 -19 93
-13 16 1 17 20 17 241 l0 240 -55 0 c-44 0 -55 -3 -55 -16 0 -9 -3 -14 -7 -12
-86 44 -147 54 -216 34z m152 -125 c65 -46 86 -120 53 -181 -53 -97 -182 -109
-246 -23 -27 36 -33 111 -12 151 38 73 141 100 205 53z"/>
<path d="M3883 981 c-74 -34 -109 -122 -76 -188 25 -51 57 -71 143 -88 111
-23 130 -32 130 -65 0 -57 -114 -75 -157 -25 -13 14 -23 33 -23 41 0 11 -14
14 -60 14 -67 0 -71 -5 -46 -64 34 -81 116 -122 224 -113 126 10 182 62 182
166 0 42 -5 56 -30 84 -30 35 -52 43 -179 69 -70 14 -94 35 -75 66 6 9 28 21
48 27 44 11 85 -6 101 -43 8 -19 17 -22 68 -22 l59 0 -7 28 c-10 42 -32 70
-78 99 -57 36 -163 43 -224 14z"/>
<path d="M2532 748 l3 -243 55 0 55 0 3 243 2 242 -60 0 -60 0 2 -242z"/>
</g>
</svg>
