<?xml version="1.0" standalone="no"?>
<!DOCTYPE svg PUBLIC "-//W3C//DTD SVG 20010904//EN"
 "http://www.w3.org/TR/2001/REC-SVG-20010904/DTD/svg10.dtd">
<svg version="1.0" xmlns="http://www.w3.org/2000/svg"
 width="600.000000pt" height="718.000000pt" viewBox="0 0 600.000000 718.000000"
 preserveAspectRatio="xMidYMid meet">

<g transform="translate(0.000000,718.000000) scale(0.100000,-0.100000)"
fill="#000000" stroke="none">
<path d="M950 5480 c0 -863 3 -1570 8 -1570 4 0 23 10 42 23 119 80 366 192
560 255 414 134 869 199 1535 217 703 19 1079 59 1508 161 l107 26 0 1229 0
1229 -1880 0 -1880 0 0 -1570z"/>
<path d="M5405 4987 c-70 -114 -233 -276 -360 -359 -176 -115 -377 -204 -632
-278 -276 -81 -455 -114 -778 -145 -139 -13 -265 -21 -735 -50 -259 -16 -569
-46 -726 -70 -918 -139 -1523 -438 -1900 -940 -102 -136 -100 -141 15 -37 210
191 430 331 688 438 194 81 532 178 788 227 317 61 427 71 1170 107 1298 64
2104 385 2433 970 31 56 96 210 90 215 -2 1 -25 -34 -53 -78z"/>
<path d="M5689 4929 c-48 -28 -73 -73 -73 -129 1 -170 217 -219 293 -66 22 45
23 52 12 95 -28 106 -139 154 -232 100z m150 -13 c59 -31 85 -115 54 -175 -53
-101 -184 -106 -243 -9 -54 89 11 198 118 198 24 0 56 -7 71 -14z"/>
<path d="M5700 4795 c0 -84 16 -119 22 -48 2 20 8 38 15 40 13 5 53 -30 71
-62 6 -11 14 -16 18 -12 4 4 -3 21 -15 38 l-23 31 21 19 c12 11 21 26 21 34 0
23 -42 45 -87 45 l-43 0 0 -85z m100 50 c19 -23 -6 -47 -44 -43 -25 2 -32 8
-34 31 -3 25 -1 27 31 27 19 0 40 -7 47 -15z"/>
<path d="M4605 3606 c-38 -17 -60 -41 -80 -89 -32 -77 -9 -185 44 -202 24 -7
23 -16 -16 -135 -46 -139 -177 -395 -229 -447 -26 -26 -59 -30 -67 -9 -3 8 14
85 38 172 62 217 69 264 51 308 -20 48 -61 66 -167 73 l-89 6 0 36 c0 47 -21
77 -66 91 -52 17 -97 5 -133 -35 -53 -61 -55 -164 -5 -216 l28 -30 -19 -35
c-11 -21 -34 -44 -54 -53 -32 -15 -34 -15 -45 3 -70 117 -113 141 -251 141
-77 0 -113 -5 -157 -22 -147 -55 -253 -170 -319 -348 -51 -137 -179 -285 -247
-285 -42 0 -39 17 63 405 31 118 28 153 -18 191 -29 24 -37 26 -99 22 -98 -7
-183 -52 -276 -145 -40 -40 -71 -66 -68 -56 23 81 26 103 15 126 -27 59 -134
62 -246 7 -113 -55 -222 -174 -388 -424 -76 -114 -158 -229 -181 -255 -48 -53
-111 -87 -146 -78 -13 4 -59 36 -102 72 -44 36 -88 71 -99 77 -18 9 -11 15 55
47 166 82 266 184 442 450 142 214 212 288 328 345 40 20 105 43 143 52 153
35 145 32 145 64 0 37 -21 44 -103 35 -279 -29 -438 -90 -564 -215 -38 -38
-127 -148 -197 -244 -152 -209 -215 -288 -304 -379 -59 -61 -118 -105 -127
-95 -5 4 74 308 85 328 5 9 26 22 47 28 82 25 163 122 163 197 0 86 -58 135
-160 135 -105 0 -205 -60 -255 -153 -16 -30 -24 -34 -88 -45 -238 -41 -459
-209 -564 -428 -33 -70 -35 -97 -6 -108 22 -9 37 3 86 70 60 82 108 129 180
175 63 41 176 81 261 94 44 6 48 5 44 -12 -3 -10 -25 -85 -48 -166 l-43 -148
-47 -24 c-114 -58 -159 -194 -69 -212 35 -7 36 -16 8 -103 -43 -138 -129 -464
-129 -490 0 -15 6 -30 13 -33 42 -16 304 131 339 190 10 17 27 74 38 129 45
212 82 364 90 364 24 0 46 -19 111 -98 83 -101 120 -136 171 -163 87 -45 190
-5 317 123 65 65 111 129 231 323 105 170 218 324 250 343 19 12 25 12 37 0
12 -13 5 -39 -50 -194 -114 -323 -151 -440 -144 -457 9 -25 78 -22 162 8 106
37 116 52 191 274 36 107 78 220 95 253 55 110 141 180 176 145 18 -17 23 11
-56 -287 -22 -85 -41 -174 -41 -198 0 -49 21 -97 49 -112 37 -19 129 -12 187
16 65 31 205 160 260 239 l38 56 13 -62 c25 -124 99 -189 227 -197 272 -17
490 187 537 501 l11 73 43 12 c56 15 96 50 141 122 27 44 40 57 54 53 55 -15
51 -47 -41 -328 -32 -99 -59 -197 -59 -218 0 -85 48 -122 148 -115 159 11 311
162 453 448 53 108 159 374 159 401 0 8 12 10 40 6 47 -6 70 -22 70 -48 0 -10
-27 -100 -60 -201 -94 -286 -100 -341 -39 -392 93 -79 297 24 449 225 79 106
108 164 94 187 -23 35 -44 25 -127 -61 -82 -85 -127 -111 -150 -88 -13 13 -8
37 47 244 37 140 45 231 25 269 -18 33 -77 51 -189 57 l-105 6 -5 45 c-8 73
-81 109 -155 76z m-1104 -576 c4 0 16 -14 25 -32 37 -72 -4 -344 -67 -443 -38
-60 -89 -84 -125 -60 -33 21 -44 54 -44 124 0 125 43 295 92 364 22 31 74 59
96 52 8 -3 18 -5 23 -5z"/>
<path d="M5355 2434 c-198 -190 -385 -290 -705 -378 -146 -40 -180 -47 -360
-81 -366 -67 -612 -90 -1280 -120 -903 -41 -1486 -176 -1965 -456 -303 -177
-582 -435 -750 -692 -99 -152 -189 -352 -100 -222 244 356 571 614 1003 789
296 121 679 215 1075 266 216 27 321 36 782 65 796 50 1059 88 1425 207 487
158 776 360 955 671 15 26 25 47 23 47 -1 -1 -48 -44 -103 -96z"/>
<path d="M4590 1630 c-440 -201 -991 -296 -1935 -335 -619 -25 -981 -82 -1450
-227 -55 -17 -135 -44 -177 -60 l-78 -30 0 -424 0 -425 43 26 c252 155 805
300 1282 336 72 5 319 14 550 19 383 8 480 14 781 49 341 40 823 158 1057 260
l47 20 0 421 c0 231 -3 420 -7 419 -5 -1 -55 -23 -113 -49z"/>
</g>
</svg>
