<?xml version="1.0" standalone="no"?>
<!DOCTYPE svg PUBLIC "-//W3C//DTD SVG 20010904//EN"
 "http://www.w3.org/TR/2001/REC-SVG-20010904/DTD/svg10.dtd">
<svg version="1.0" xmlns="http://www.w3.org/2000/svg"
 width="600.000000pt" height="600.000000pt" viewBox="0 0 600.000000 600.000000"
 preserveAspectRatio="xMidYMid meet">

<g transform="translate(0.000000,600.000000) scale(0.100000,-0.100000)"
fill="#000000" stroke="none">
<path d="M2655 5896 c-983 -119 -1835 -718 -2280 -1605 -147 -294 -237 -581
-287 -921 -32 -221 -32 -597 0 -815 103 -695 424 -1306 927 -1767 460 -421
1013 -677 1637 -755 163 -20 496 -23 658 -5 964 108 1809 680 2272 1537 161
299 265 612 320 965 30 195 33 647 5 835 -99 662 -381 1229 -841 1691 -447
448 -1001 727 -1646 830 -142 22 -610 28 -765 10z m-1662 -2857 c38 -72 72
-128 75 -124 4 3 36 61 72 128 64 120 66 122 100 122 l35 0 3 -182 2 -183 -34
0 -35 0 -3 108 -3 107 -55 -107 c-49 -97 -58 -108 -82 -108 -24 0 -33 11 -80
100 -29 55 -56 100 -59 100 -3 0 -6 -42 -6 -92 -1 -51 -2 -96 -2 -100 -1 -5
-14 -8 -31 -8 l-30 0 0 185 0 185 33 0 c31 0 34 -4 100 -131z m614 119 c8 -10
139 -293 160 -345 4 -9 -6 -13 -33 -13 -37 0 -40 3 -61 50 l-22 50 -73 0 -74
0 -21 -50 c-20 -47 -24 -50 -57 -50 -20 0 -36 4 -36 8 0 4 33 80 73 167 41 88
76 168 80 178 7 20 50 23 64 5z m300 -62 c32 -41 60 -75 63 -75 3 -1 32 33 64
74 55 70 61 75 97 75 22 0 39 -3 39 -7 0 -5 -25 -39 -56 -78 -115 -142 -114
-141 -114 -217 l0 -68 -30 0 -30 0 0 68 c0 76 -1 78 -102 206 -38 46 -68 87
-68 90 0 3 18 6 40 6 38 0 43 -4 97 -74z m618 60 c18 -8 38 -23 44 -34 15 -27
14 -88 -1 -112 -10 -15 -9 -22 5 -38 23 -25 22 -100 -1 -128 -30 -38 -57 -44
-181 -44 l-121 0 0 178 c0 98 3 182 7 185 13 13 213 7 248 -7z m520 -21 l0
-30 -118 -3 -118 -3 3 -37 3 -37 113 -3 112 -3 0 -29 c0 -37 -18 -43 -133 -38
l-92 3 0 -45 0 -45 118 -3 117 -3 0 -29 0 -30 -149 0 c-127 0 -150 2 -155 16
-8 22 -8 339 1 348 4 3 72 5 152 4 l146 -3 0 -30z m237 -117 l3 -153 103 -3
102 -3 0 -29 0 -30 -135 0 -135 0 0 185 0 185 30 0 29 0 3 -152z m420 0 l3
-153 103 -3 102 -3 0 -29 0 -30 -140 0 -140 0 0 178 c0 98 3 182 7 185 3 4 19
7 34 7 l28 0 3 -152z m408 -33 l0 -185 -35 0 -35 0 0 178 c0 98 3 182 7 185 3
4 19 7 35 7 l28 0 0 -185z m326 65 c53 -66 99 -120 103 -120 3 0 6 53 6 118
l0 117 33 3 32 3 0 -185 0 -186 -32 1 c-30 0 -42 12 -128 119 l-95 119 -3
-119 -3 -120 -34 0 -35 0 0 185 0 185 30 0 c26 0 42 -15 126 -120z m639 110
c5 -8 11 -8 20 0 19 15 45 1 45 -25 0 -27 -26 -40 -46 -24 -10 8 -14 8 -14 0
0 -7 -37 -11 -115 -11 l-115 0 0 -40 0 -40 111 0 110 0 -3 -32 -3 -33 -107 0
-108 0 0 -47 0 -48 115 0 115 0 0 -30 0 -30 -150 0 -150 0 0 178 c0 98 3 182
7 185 11 12 281 8 288 -3z m-1667 -529 c-3 -80 -5 -86 -25 -89 -17 -3 -33 11
-70 59 l-48 61 -3 -61 c-3 -53 -6 -61 -22 -61 -18 0 -20 7 -20 90 0 88 1 90
24 90 17 0 36 -16 67 -57 l44 -57 3 55 c3 54 14 71 39 62 11 -4 13 -26 11 -92z
m492 34 c7 -25 16 -48 21 -50 4 -3 16 19 25 50 15 46 21 55 41 55 13 0 23 -1
23 -3 0 -2 -15 -41 -33 -88 -25 -65 -38 -85 -54 -87 -17 -3 -24 6 -38 50 -10
29 -21 57 -25 61 -4 5 -16 -18 -26 -50 -16 -49 -23 -58 -43 -58 -20 0 -27 10
-46 64 -38 105 -39 111 -12 111 20 0 25 -8 36 -50 7 -27 16 -52 20 -55 5 -2
16 20 26 50 28 81 62 81 85 0z m605 51 c39 -17 55 -42 55 -89 0 -52 -45 -87
-112 -87 -41 0 -54 5 -79 29 -35 36 -38 77 -8 115 36 46 84 57 144 32z m-865
-11 c0 -12 -13 -15 -60 -15 -53 0 -60 -2 -60 -20 0 -18 7 -20 61 -20 81 0 77
-24 -5 -28 -52 -3 -57 -5 -54 -25 3 -20 9 -22 60 -22 31 0 60 -4 64 -8 18 -18
-18 -28 -92 -25 l-79 3 -2 88 -2 87 84 0 c69 0 85 -3 85 -15z m545 -20 l27
-36 26 35 c17 22 36 35 50 36 12 0 22 -2 22 -5 0 -3 -18 -28 -40 -56 -29 -37
-40 -60 -40 -85 0 -27 -4 -34 -20 -34 -16 0 -20 7 -20 35 0 26 -11 48 -45 90
l-45 55 29 0 c21 0 36 -9 56 -35z m606 25 c21 -12 25 -50 7 -68 -8 -8 -8 -15
-1 -24 6 -7 13 -28 15 -45 4 -29 2 -33 -18 -33 -18 0 -25 8 -32 32 -6 22 -16
34 -33 38 -40 10 -58 1 -61 -34 -2 -23 -8 -32 -25 -34 -22 -3 -23 -1 -23 87
l0 91 76 0 c41 0 84 -5 95 -10z m135 -17 c-5 -44 3 -46 48 -8 28 22 53 35 72
35 32 -1 34 2 -36 -50 l-25 -19 48 -48 c26 -27 47 -52 47 -56 0 -22 -50 -2
-87 35 -46 45 -59 44 -65 -7 -2 -22 -9 -31 -25 -33 -22 -3 -23 -1 -23 87 0 90
0 91 24 91 21 0 24 -4 22 -27z"/>
<path d="M1557 3015 c-9 -20 -17 -38 -17 -40 0 -3 18 -5 40 -5 l40 0 -20 40
c-11 22 -22 40 -23 40 -2 0 -11 -16 -20 -35z"/>
<path d="M2340 3060 l0 -40 68 0 c78 0 106 14 100 51 -3 23 -7 24 -85 27 l-83
3 0 -41z"/>
<path d="M2340 2906 l0 -48 81 4 c66 3 83 7 95 23 17 23 17 27 2 47 -10 13
-34 18 -96 20 l-82 3 0 -49z"/>
<path d="M4420 2687 c-31 -16 -40 -76 -15 -101 19 -19 65 -21 88 -3 60 45 -5
138 -73 104z"/>
<path d="M4670 2665 c0 -19 5 -25 23 -25 42 0 67 12 67 31 0 16 -8 19 -45 19
-41 0 -45 -2 -45 -25z"/>
</g>
</svg>
