<?xml version="1.0" standalone="no"?>
<!DOCTYPE svg PUBLIC "-//W3C//DTD SVG 20010904//EN"
 "http://www.w3.org/TR/2001/REC-SVG-20010904/DTD/svg10.dtd">
<svg version="1.0" xmlns="http://www.w3.org/2000/svg"
 width="404.000000pt" height="316.000000pt" viewBox="0 0 404.000000 316.000000"
 preserveAspectRatio="xMidYMid meet">

<g transform="translate(0.000000,316.000000) scale(0.100000,-0.100000)"
fill="#000000" stroke="none">
<path d="M2634 3135 c-23 -69 -74 -162 -146 -265 l-82 -118 -75 33 -76 32 -7
63 c-10 87 -58 182 -110 221 -23 16 -44 29 -47 29 -3 0 -4 -30 -3 -67 2 -36 1
-90 -3 -119 l-6 -52 -67 -4 c-37 -3 -75 -8 -84 -12 -24 -11 -33 27 -33 146 0
54 -3 98 -6 98 -3 0 -26 -18 -51 -39 -55 -49 -95 -134 -105 -225 l-8 -68 -67
-28 -67 -29 -74 102 c-91 127 -112 162 -147 243 l-27 66 -20 -29 c-78 -110
-61 -303 38 -444 l18 -26 -34 -16 c-34 -16 -35 -16 -107 22 -90 48 -348 141
-392 141 -18 0 -37 -5 -44 -12 -28 -28 -3 -138 64 -270 l35 -68 -48 -21 c-27
-12 -118 -50 -203 -85 -127 -53 -162 -71 -191 -104 -72 -79 -73 -85 -80 -390
-4 -151 -7 -412 -8 -580 0 -275 1 -309 18 -345 41 -91 71 -112 306 -215 66
-29 122 -54 123 -55 2 -2 -8 -37 -22 -78 -29 -84 -32 -124 -13 -152 20 -26 70
-17 227 40 l129 48 76 -34 c58 -25 74 -37 69 -48 -36 -88 -38 -222 -5 -298 33
-75 46 -83 61 -36 29 87 130 253 155 253 6 0 61 -22 121 -49 101 -45 111 -52
134 -94 31 -56 66 -94 102 -113 l27 -14 -6 55 -6 55 48 -21 c38 -17 62 -20
122 -17 l75 3 -4 -42 c-2 -24 -1 -43 2 -43 25 0 117 98 132 140 2 5 62 33 135
63 152 63 133 68 205 -53 43 -72 75 -146 70 -163 -2 -5 3 -7 9 -5 7 2 24 26
38 53 23 44 26 62 26 145 0 52 -2 110 -5 129 l-5 34 89 37 89 37 124 -43 c68
-24 137 -44 153 -44 52 0 64 56 31 152 l-19 55 142 58 c77 32 162 69 187 81
57 28 111 87 133 146 l17 44 52 -25 c68 -34 200 -42 276 -16 45 15 51 20 51
44 l0 28 -56 -29 c-62 -31 -143 -38 -203 -17 -48 17 -37 24 38 24 43 0 96 9
145 25 l76 24 0 88 c0 68 -3 87 -12 82 -7 -5 -53 -37 -103 -72 -93 -66 -161
-104 -227 -128 l-38 -13 0 68 c0 37 3 156 7 265 6 193 7 196 24 170 42 -64
156 -114 260 -114 90 0 89 -2 89 107 0 85 -2 94 -17 89 -60 -18 -198 -36 -269
-36 l-84 0 0 90 c0 87 1 90 25 96 35 9 168 -8 323 -42 22 -4 22 -3 22 90 0
110 2 108 -110 108 -96 0 -173 -28 -237 -85 l-23 -20 0 179 c0 173 -1 182 -26
232 -14 28 -40 64 -57 78 -36 31 -103 62 -455 215 l-43 19 37 72 c68 135 92
236 62 266 -7 7 -27 12 -45 12 -39 0 -311 -98 -395 -142 -52 -28 -59 -29 -92
-17 -20 7 -36 16 -36 20 0 4 15 32 34 64 73 121 76 314 6 405 -18 24 -19 24
-26 5z m-443 -150 c21 -46 26 -149 7 -143 -7 3 -17 36 -24 74 -6 38 -22 90
-34 114 l-22 45 27 -25 c15 -14 36 -43 46 -65z m-351 28 c-10 -22 -24 -71 -31
-109 -16 -97 -18 -102 -29 -84 -13 21 -12 85 1 131 11 35 67 115 75 106 2 -2
-5 -22 -16 -44z m829 16 c21 -61 14 -140 -19 -206 -30 -59 -84 -124 -65 -78
44 112 58 166 59 237 0 43 4 78 8 78 3 0 11 -14 17 -31z m-1292 -226 c17 -46
27 -83 24 -83 -4 0 -23 25 -43 55 -57 86 -69 175 -35 255 9 21 12 13 18 -60 4
-54 17 -115 36 -167z m1604 -197 l-74 -75 -36 15 c-19 8 -36 16 -38 18 -10 9
180 113 212 115 5 1 -24 -32 -64 -73z m-1921 12 c107 -56 113 -64 65 -84 l-38
-16 -76 77 c-85 86 -77 90 49 23z m2924 -838 c7 -7 -4 -10 -30 -10 -66 0 -156
-20 -209 -47 l-50 -24 35 36 c45 46 107 66 185 60 32 -3 64 -10 69 -15z
m-2812 -30 c48 -17 104 -63 125 -103 9 -18 16 -56 16 -87 0 -86 -38 -141 -121
-177 l-42 -18 81 -135 c111 -184 143 -226 190 -246 21 -10 38 -23 36 -28 -2
-6 -27 -12 -55 -14 -103 -6 -142 32 -287 281 l-80 137 -52 0 -53 0 0 -177 0
-178 -47 1 -48 1 -5 350 c-5 383 -4 377 -66 389 -19 3 -34 11 -34 16 0 15 395
4 442 -12z m1734 -26 c12 -18 19 -55 22 -124 l5 -98 38 20 c85 44 196 31 248
-28 44 -49 51 -90 51 -294 0 -152 3 -190 16 -208 15 -21 14 -22 -20 -22 -22 0
-45 9 -63 24 l-28 24 -5 194 c-6 213 -13 244 -70 273 -42 22 -77 19 -127 -10
l-43 -26 0 -224 0 -225 -49 0 -50 0 -3 338 c-3 303 -5 341 -21 365 -13 21 -25
27 -52 27 -19 0 -35 5 -35 10 0 6 35 10 85 10 80 0 85 -1 101 -26z m-1129
-220 c15 -11 39 -41 52 -68 22 -44 24 -57 22 -212 -1 -116 3 -176 13 -204 l14
-40 -35 0 c-26 0 -42 8 -63 30 -17 18 -31 26 -35 20 -16 -25 -86 -50 -142 -50
-106 0 -173 58 -173 149 0 101 69 149 228 160 l97 6 -3 45 c-7 108 -48 154
-138 154 -38 0 -61 -6 -88 -24 -40 -28 -45 -40 -18 -40 42 0 56 -49 21 -74
-40 -27 -69 -3 -69 59 0 87 51 116 192 113 79 -3 102 -7 125 -24z m319 1 l25
-25 -3 -293 c-3 -274 -4 -294 -24 -327 -29 -50 -86 -80 -154 -80 -30 0 -62 4
-70 10 -10 6 -1 9 30 8 37 0 48 5 71 30 15 17 33 48 38 69 7 22 11 147 11 301
l0 263 -25 24 c-13 14 -36 25 -50 25 -14 0 -25 5 -25 10 0 6 32 10 75 10 68 0
79 -3 101 -25z m492 -2 c15 -11 38 -40 52 -64 23 -42 25 -55 30 -239 3 -107 9
-203 14 -212 6 -13 4 -18 -8 -18 -28 0 -83 27 -94 46 -10 18 -11 18 -29 2 -26
-24 -98 -48 -142 -48 -47 1 -112 31 -139 64 -11 15 -24 47 -28 71 -15 106 69
171 236 182 l92 6 -6 54 c-12 101 -52 143 -138 143 -42 0 -109 -27 -115 -47
-2 -5 8 -15 22 -21 49 -22 23 -91 -30 -78 -40 10 -47 93 -12 140 34 47 240 60
295 19z m1327 -105 c98 -12 96 -28 -3 -29 -68 -1 -134 24 -172 65 l-24 27 56
-26 c33 -15 92 -30 143 -37z m-2940 -859 c-57 -25 -63 -23 -30 11 24 25 31 27
49 18 20 -11 19 -12 -19 -29z m2084 -13 c10 -12 8 -13 -8 -9 -12 3 -21 9 -21
14 0 14 16 11 29 -5z m-1699 -125 c0 -5 -7 -28 -16 -52 -9 -24 -19 -82 -23
-129 -7 -81 -8 -84 -20 -55 -32 71 -1 245 43 245 9 0 16 -4 16 -9z m1324 -61
c9 -22 16 -64 16 -94 0 -52 -16 -116 -28 -116 -4 0 -8 35 -9 78 -1 42 -8 96
-16 119 -15 40 -13 49 14 52 4 1 14 -17 23 -39z m-888 -128 c11 -7 44 -65 44
-78 0 -13 -42 31 -56 58 -14 28 -10 35 12 20z m376 -65 c-18 -17 -32 -27 -32
-21 0 16 50 67 58 60 3 -4 -8 -21 -26 -39z"/>
<path d="M953 1720 c-22 -9 -23 -13 -23 -159 0 -169 -4 -161 84 -161 65 0 131
32 164 81 20 28 23 44 20 92 -4 46 -10 63 -34 88 -54 58 -148 84 -211 59z"/>
<path d="M1615 1231 c-63 -29 -79 -54 -76 -119 0 -13 14 -37 30 -53 40 -40
105 -41 150 -3 30 25 31 28 31 110 l0 84 -47 0 c-27 0 -66 -9 -88 -19z"/>
<path d="M2470 1241 c-110 -23 -154 -113 -91 -183 26 -29 35 -33 81 -33 46 0
55 4 81 33 28 32 30 37 27 110 l-3 77 -30 2 c-16 0 -46 -2 -65 -6z"/>
<path d="M3350 3063 c-56 -16 -100 -67 -100 -117 0 -66 69 -124 130 -111 45
10 90 67 90 115 0 61 -70 127 -120 113z"/>
<path d="M2336 3045 c-38 -38 -22 -98 30 -111 31 -8 74 28 74 63 0 50 -69 82
-104 48z"/>
<path d="M562 3022 c-53 -50 -54 -111 -3 -163 39 -39 76 -46 118 -23 62 33 80
100 42 160 -25 41 -47 54 -92 54 -25 0 -44 -9 -65 -28z"/>
<path d="M1561 3024 c-27 -34 -26 -50 4 -79 30 -31 55 -32 83 -2 27 29 28 61
2 87 -28 28 -64 25 -89 -6z"/>
<path d="M3751 3025 c-62 -53 -62 -127 1 -180 53 -45 132 -24 164 43 21 44 11
85 -32 128 -43 43 -88 46 -133 9z"/>
<path d="M115 3007 c-57 -57 -58 -117 -3 -169 49 -46 118 -34 159 28 31 48 25
90 -20 135 -51 51 -89 53 -136 6z"/>
<path d="M3992 2778 c-27 -35 -18 -107 27 -208 l20 -45 0 133 c1 123 0 132
-18 132 -10 0 -23 -6 -29 -12z"/>
<path d="M1 2698 c1 -52 3 -66 9 -48 12 36 12 108 0 115 -6 4 -10 -20 -9 -67z"/>
<path d="M3773 2290 c-43 -9 -118 -43 -127 -59 -3 -4 21 -18 53 -30 60 -22
154 -79 271 -165 l65 -48 3 87 c2 48 1 90 -2 92 -19 20 -153 56 -223 60 -45 3
-80 9 -78 13 3 5 27 13 54 20 64 15 141 0 205 -41 l47 -29 -3 32 c-3 28 -9 35
-48 49 -57 21 -162 30 -217 19z"/>
<path d="M37 2278 c-30 -8 -37 -15 -37 -35 0 -20 4 -24 18 -18 90 39 159 45
217 21 19 -8 35 -16 35 -18 0 -2 -33 -4 -73 -5 -39 0 -99 -10 -132 -20 l-60
-19 -3 -82 c-2 -45 0 -82 3 -82 3 0 36 22 73 49 94 68 164 108 228 130 l56 18
-32 23 c-65 46 -197 63 -293 38z"/>
<path d="M162 2024 c-48 -34 -11 -123 46 -109 34 8 52 31 52 65 0 51 -53 76
-98 44z"/>
<path d="M3746 2018 c-32 -46 -6 -98 49 -98 57 0 85 60 45 100 -27 27 -75 26
-94 -2z"/>
<path d="M0 1735 c0 -52 4 -95 9 -95 5 0 43 7 83 16 40 9 114 16 165 17 l92 2
-17 30 c-44 74 -153 125 -269 125 l-63 0 0 -95z m159 54 c44 -9 139 -64 129
-74 -2 -2 -33 7 -69 20 -36 13 -98 27 -138 31 -76 7 -82 12 -29 24 47 11 51
11 107 -1z"/>
<path d="M0 1456 l0 -66 58 6 c75 8 128 22 174 45 43 22 48 19 16 -11 -49 -47
-96 -62 -175 -58 -70 3 -73 3 -73 -19 0 -21 5 -23 48 -23 99 0 223 58 262 122
11 18 20 35 20 38 0 3 -34 4 -76 2 -67 -3 -158 7 -231 25 -22 5 -23 3 -23 -61z"/>
<path d="M142 1234 c-29 -20 -29 -67 0 -94 26 -24 46 -25 76 -4 45 31 18 114
-38 114 -9 0 -26 -7 -38 -16z"/>
<path d="M3775 1225 c-30 -29 -32 -58 -5 -85 27 -27 62 -25 88 3 28 30 28 58
-1 85 -30 28 -52 28 -82 -3z"/>
<path d="M0 1052 l0 -79 58 -17 c32 -9 89 -16 126 -16 75 0 79 -11 10 -30 -44
-13 -99 -8 -171 15 -19 6 -23 4 -23 -13 0 -25 18 -32 101 -39 72 -6 150 12
209 48 l34 21 -60 22 c-66 24 -106 47 -199 111 -33 23 -66 45 -72 49 -10 5
-13 -11 -13 -72z"/>
<path d="M4016 538 c-25 -82 -29 -114 -17 -137 7 -11 18 -21 26 -21 12 0 15
19 15 105 0 58 -2 105 -4 105 -2 0 -11 -24 -20 -52z"/>
<path d="M570 357 c-32 -16 -70 -73 -70 -106 0 -32 31 -80 62 -97 29 -17 78
-17 98 -1 80 64 80 161 0 202 -35 18 -57 19 -90 2z"/>
<path d="M3329 345 c-36 -20 -59 -58 -59 -100 0 -51 59 -115 107 -115 63 0
113 54 113 121 0 23 -10 41 -39 70 -42 43 -76 49 -122 24z"/>
<path d="M84 316 c-41 -41 -45 -82 -13 -133 44 -71 114 -79 169 -17 43 49 42
100 -4 148 -28 30 -40 36 -76 36 -34 0 -48 -6 -76 -34z"/>
<path d="M3790 331 c-19 -10 -43 -35 -54 -56 -18 -35 -18 -41 -5 -79 15 -44
66 -86 105 -86 33 0 92 55 105 99 26 87 -71 165 -151 122z"/>
<path d="M1541 244 c-27 -34 -26 -50 4 -79 29 -30 58 -32 85 -5 26 26 25 64
-2 90 -30 27 -62 25 -87 -6z"/>
<path d="M2355 235 c-30 -29 -31 -45 -4 -79 25 -31 57 -33 87 -6 27 26 28 64
2 90 -27 27 -56 25 -85 -5z"/>
</g>
</svg>
