<?xml version="1.0" standalone="no"?>
<!DOCTYPE svg PUBLIC "-//W3C//DTD SVG 20010904//EN"
 "http://www.w3.org/TR/2001/REC-SVG-20010904/DTD/svg10.dtd">
<svg version="1.0" xmlns="http://www.w3.org/2000/svg"
 width="210.000000pt" height="210.000000pt" viewBox="0 0 210.000000 210.000000"
 preserveAspectRatio="xMidYMid meet">

<g transform="translate(0.000000,210.000000) scale(0.100000,-0.100000)"
fill="#000000" stroke="none">
<path d="M913 1671 c-40 -11 -85 -27 -100 -35 -38 -21 -28 -20 37 4 84 31 82
24 -5 -21 -44 -22 -111 -62 -150 -88 -101 -68 -107 -69 -40 -5 33 32 46 48 29
36 -17 -12 -58 -50 -92 -86 -193 -207 -226 -528 -80 -773 74 -125 216 -236
363 -285 58 -19 91 -23 195 -23 104 0 137 4 195 23 265 88 440 316 453 588 14
302 -156 553 -445 655 -87 31 -264 36 -360 10z m286 -76 c190 -45 346 -191
411 -385 26 -77 31 -215 11 -300 -70 -294 -370 -487 -661 -426 -316 66 -517
377 -445 685 48 203 213 372 415 425 72 19 189 19 269 1z"/>
<path d="M932 1564 c-187 -50 -338 -202 -387 -390 -24 -92 -20 -211 11 -302
33 -99 70 -157 149 -230 105 -99 216 -142 366 -142 299 0 539 240 539 540 0
246 -169 463 -407 525 -71 19 -201 18 -271 -1z m165 -30 c6 -15 7 -15 19 0 11
16 19 16 68 6 32 -6 56 -17 56 -24 0 -8 10 -11 28 -8 33 4 68 -28 58 -55 -6
-15 -8 -14 -19 7 -14 26 -37 39 -37 18 1 -7 11 -26 24 -41 20 -25 24 -26 36
-13 20 25 66 20 89 -10 25 -32 26 -52 5 -83 -16 -22 -16 -23 5 -11 12 6 25 18
28 26 3 8 9 14 14 14 17 0 20 -48 5 -84 -17 -41 -10 -46 23 -15 19 18 25 19
32 8 12 -20 11 -30 -3 -28 -21 4 -68 -23 -68 -38 0 -7 -6 -22 -12 -33 -9 -15
-10 -22 -1 -31 16 -16 33 -3 33 25 0 37 23 60 53 52 41 -10 52 -86 12 -86 -12
0 -13 3 -4 19 13 20 5 56 -11 46 -5 -3 -10 -17 -10 -31 0 -38 -18 -64 -45 -64
-28 0 -34 8 -56 70 -15 43 -14 47 9 93 l23 49 -30 -18 c-17 -10 -31 -24 -31
-31 0 -23 -19 -14 -26 12 -3 14 -11 25 -17 25 -20 0 -47 33 -47 57 0 21 -3 22
-20 13 -29 -16 -90 22 -83 50 7 27 21 25 25 -2 2 -15 11 -24 26 -26 27 -4 27
2 4 36 -10 15 -24 42 -31 60 -8 17 -17 32 -21 32 -8 0 -25 -86 -21 -109 2 -10
-4 -12 -26 -6 -15 4 -41 7 -56 6 -23 -1 -31 4 -40 29 -6 16 -15 30 -19 30 -12
0 -10 -28 2 -35 18 -11 0 -25 -30 -25 -41 0 -120 -33 -173 -72 -43 -33 -49
-40 -95 -111 -19 -30 -30 -37 -55 -37 -27 -1 -29 -2 -14 -11 9 -5 22 -7 29 -3
8 5 9 -1 4 -22 -4 -16 -9 -30 -10 -31 -1 -1 -25 9 -54 23 -29 14 -57 22 -62
19 -14 -9 -12 9 6 54 19 49 52 63 72 32 9 -13 25 -21 41 -21 26 1 26 1 -5 14
-18 8 -36 27 -44 45 -12 29 -11 35 7 59 17 22 28 27 62 26 33 -1 39 2 30 13
-6 7 -19 13 -28 13 -11 1 -3 13 24 36 45 40 76 41 86 4 4 -14 7 -21 8 -17 1 4
10 3 21 -3 20 -11 20 -10 5 27 -9 20 -21 41 -28 45 -7 4 -3 10 13 16 14 6 38
15 54 21 23 9 31 9 38 -1 14 -23 9 -28 -22 -21 -23 4 -30 2 -30 -10 0 -9 5
-19 10 -22 6 -3 10 1 10 9 0 21 16 21 24 0 11 -28 7 -44 -9 -38 -17 7 -19 -4
-6 -25 8 -12 12 -12 25 -2 9 8 16 20 16 27 0 8 5 14 10 14 6 0 10 -7 10 -15 0
-8 5 -15 10 -15 10 0 8 29 -6 98 -4 21 -1 22 51 22 42 0 57 -4 62 -16z m44
-158 c258 -60 358 -370 183 -565 -134 -149 -352 -155 -496 -14 -135 132 -137
345 -5 481 47 49 119 89 181 102 60 12 75 11 137 -4z m-475 -446 c4 -22 11
-43 15 -46 15 -9 10 -34 -7 -34 -9 0 -14 -6 -11 -12 2 -7 13 -13 24 -13 12 0
34 -16 52 -39 33 -42 37 -51 21 -61 -5 -3 -10 3 -10 14 0 12 -7 21 -15 21 -8
0 -15 -4 -15 -10 0 -5 5 -10 12 -10 9 0 8 -3 -1 -12 -11 -11 -14 -10 -18 0 -3
6 -9 10 -14 6 -16 -9 -10 -24 14 -33 19 -8 20 -10 5 -16 -12 -5 -25 2 -42 21
l-24 29 34 24 c34 24 44 41 23 41 -15 0 -53 -21 -61 -34 -6 -8 -11 -6 -18 4
-15 22 -12 30 10 30 11 0 20 4 20 9 0 16 -20 23 -34 12 -7 -6 -16 -8 -19 -4
-15 15 -5 30 31 43 26 10 32 15 19 18 -15 3 -16 6 -5 19 12 15 10 15 -17 9
-16 -4 -38 -9 -47 -12 -13 -4 -18 0 -18 13 0 13 9 19 32 20 30 2 67 23 40 23
-7 0 -12 5 -12 10 0 6 7 10 15 10 10 0 17 -14 21 -40z m831 2 c-21 -23 -21
-32 -2 -32 9 0 12 6 8 16 -4 12 -2 15 8 12 8 -3 13 -12 11 -22 -2 -9 4 -16 14
-16 12 0 15 6 10 26 -5 19 -3 25 6 21 7 -2 12 -16 11 -31 -2 -29 -43 -126 -52
-126 -3 1 -17 7 -31 15 -32 19 -46 19 -31 1 9 -11 9 -20 2 -35 -9 -16 -8 -22
6 -30 15 -8 16 -12 5 -23 -8 -8 -15 -9 -20 -3 -4 6 -19 20 -35 32 l-27 21 23
29 c13 15 27 37 31 48 4 11 10 15 14 10 7 -10 57 -35 69 -35 3 0 2 11 -1 25
-5 20 -3 23 11 18 10 -4 14 -2 10 4 -4 6 -23 14 -42 17 -19 4 -35 11 -35 16 0
24 21 60 36 60 16 0 16 -1 1 -18z m-95 -209 c21 -18 24 -53 6 -71 -20 -20 -56
-14 -74 13 -15 23 -15 27 0 50 19 29 42 32 68 8z m-571 -23 c20 -11 27 -40 9
-40 -5 0 -10 7 -10 15 0 8 -5 15 -11 15 -7 0 -8 -7 -4 -17 16 -38 16 -50 1
-62 -13 -11 -20 -11 -41 3 -26 17 -31 31 -16 40 5 3 11 -3 14 -14 3 -11 10
-20 16 -20 14 0 14 16 0 41 -7 15 -7 24 2 35 14 17 15 17 40 4z m485 -47 c1
-23 -2 -30 -12 -26 -10 4 -12 0 -8 -11 8 -22 25 -20 31 4 5 21 23 18 23 -3 0
-12 -58 -53 -64 -45 -1 1 -9 18 -16 37 -13 31 -14 32 -22 12 -4 -12 -14 -24
-23 -27 -11 -4 -12 -11 -5 -24 10 -19 4 -30 -18 -30 -9 0 -13 3 -9 6 3 4 0 22
-8 41 -17 41 -14 49 23 58 15 3 41 14 57 25 38 25 49 21 51 -17z m-409 3 c15
-8 36 -17 45 -20 16 -5 16 -8 3 -33 -8 -15 -15 -36 -15 -46 0 -11 -5 -17 -12
-14 -14 5 -15 19 -3 57 7 22 6 23 -8 12 -9 -8 -25 -11 -37 -7 -16 5 -20 2 -20
-14 0 -22 -7 -26 -28 -13 -9 7 -7 18 10 50 26 47 26 47 65 28z m221 -52 c3
-15 1 -17 -9 -6 -16 15 -39 16 -39 1 0 -6 7 -9 15 -5 10 4 15 -1 15 -14 0 -13
-5 -18 -15 -14 -11 5 -13 2 -9 -10 7 -19 16 -20 32 -4 6 6 15 9 19 5 11 -11
-9 -26 -45 -33 -32 -6 -32 -6 -32 34 0 33 -3 40 -15 36 -8 -4 -15 -1 -15 5 0
6 -9 11 -21 11 -17 0 -20 -5 -17 -32 2 -28 7 -33 26 -31 13 2 21 -1 17 -7 -9
-14 -48 -13 -63 2 -17 17 -15 48 3 68 12 13 30 17 83 15 57 -2 68 -5 70 -21z"/>
<path d="M1030 1509 c0 -24 23 -21 28 4 2 10 -3 17 -12 17 -10 0 -16 -9 -16
-21z"/>
<path d="M1125 1517 c-44 -27 -48 -36 -31 -62 25 -39 42 -31 53 25 11 53 9 56
-22 37z"/>
<path d="M766 1431 c-3 -5 1 -14 8 -20 16 -13 32 2 21 19 -8 12 -22 13 -29 1z"/>
<path d="M1342 1387 c-41 -43 -21 -76 29 -51 26 13 39 33 39 60 0 22 -44 16
-68 -9z"/>
<path d="M804 1389 c-3 -6 1 -18 10 -27 14 -14 18 -15 25 -3 5 8 7 20 4 28 -6
16 -29 17 -39 2z"/>
<path d="M670 1332 c0 -25 41 -62 68 -62 29 0 29 33 0 60 -28 26 -68 27 -68 2z"/>
<path d="M605 1221 c-3 -6 4 -15 15 -21 17 -9 20 -8 20 10 0 20 -24 28 -35 11z"/>
<path d="M1000 1310 c-30 -16 -50 -29 -45 -29 13 -1 76 22 93 32 6 5 17 5 22
2 6 -3 10 1 10 9 0 22 -16 19 -80 -14z"/>
<path d="M1069 1270 c-4 -19 -5 -59 -4 -87 2 -29 -1 -53 -5 -53 -4 0 -6 -27
-3 -60 5 -53 4 -60 -12 -60 -13 0 -15 -3 -8 -12 11 -14 11 -40 -1 -75 -4 -14
-3 -23 3 -23 5 0 12 8 14 18 3 11 5 9 6 -8 1 -22 -4 -25 -33 -27 -30 -3 -36 1
-50 31 -20 43 -20 53 2 59 13 4 13 5 -4 6 -20 1 -22 6 -20 86 1 54 -2 84 -9
82 -6 -2 -8 -26 -7 -56 3 -44 0 -55 -19 -71 -14 -13 -17 -20 -8 -20 9 0 15
-14 17 -42 1 -23 0 -39 -3 -36 -4 3 -17 0 -31 -7 -15 -7 -43 -10 -71 -7 -33 4
-44 2 -39 -7 4 -6 12 -9 17 -5 15 9 57 -23 74 -56 27 -52 57 -60 230 -60 149
0 155 1 155 20 0 13 10 24 25 30 28 11 31 21 13 50 -10 16 -10 22 4 32 23 17
50 100 38 112 -7 7 -14 6 -22 -2 -9 -9 -9 -12 0 -12 32 0 -4 -45 -44 -54 -27
-6 -31 -3 -48 31 l-18 37 57 54 c31 30 54 56 52 58 -2 2 -23 -17 -47 -41 -60
-61 -70 -59 -72 18 l-2 62 -3 -55 c-2 -30 -6 -62 -10 -70 -3 -8 -6 -24 -7 -35
-1 -13 -10 -22 -31 -26 -16 -4 -22 -7 -11 -8 16 -1 17 -3 5 -18 -13 -17 -13
-17 7 0 25 21 35 22 28 2 -4 -9 0 -15 7 -15 8 -1 2 -7 -12 -15 -15 -8 -29 -21
-32 -28 -3 -8 -17 -17 -31 -19 -20 -4 -26 -1 -26 13 0 11 6 19 14 19 10 0 13
12 11 46 -2 26 -7 49 -12 53 -11 8 -10 74 1 82 5 4 6 15 1 25 -12 30 -9 95 4
104 10 5 9 9 -2 13 -9 3 -17 18 -19 34 -3 27 -4 26 -9 -7z m151 -312 c0 -10
-4 -18 -10 -18 -5 0 -10 15 -10 33 0 24 3 28 10 17 5 -8 10 -23 10 -32z m-263
-40 c-3 -8 -6 -5 -6 6 -1 11 2 17 5 13 3 -3 4 -12 1 -19z m293 -83 c0 -2 -10
-9 -22 -15 -22 -11 -22 -10 -4 4 21 17 26 19 26 11z"/>
<path d="M1190 1210 c0 -5 5 -10 11 -10 5 0 7 5 4 10 -3 6 -8 10 -11 10 -2 0
-4 -4 -4 -10z"/>
<path d="M1118 1103 c7 -3 16 -2 19 1 4 3 -2 6 -13 5 -11 0 -14 -3 -6 -6z"/>
<path d="M885 1080 c-27 -30 -12 -34 15 -5 13 14 19 25 13 25 -5 0 -18 -9 -28
-20z"/>
<path d="M988 1093 c6 -2 18 -2 25 0 6 3 1 5 -13 5 -14 0 -19 -2 -12 -5z"/>
<path d="M829 1033 c-13 -16 -12 -17 4 -4 9 7 17 15 17 17 0 8 -8 3 -21 -13z"/>
<path d="M820 995 c-27 -28 -45 -33 -36 -9 5 14 4 15 -9 4 -9 -7 -14 -14 -13
-15 25 -16 78 -43 66 -32 -23 18 -23 26 4 54 12 13 19 23 16 23 -2 0 -15 -11
-28 -25z"/>
<path d="M855 920 c3 -5 8 -10 11 -10 2 0 4 5 4 10 0 6 -5 10 -11 10 -5 0 -7
-4 -4 -10z"/>
<path d="M1410 770 c0 -5 7 -10 15 -10 8 0 15 5 15 10 0 6 -7 10 -15 10 -8 0
-15 -4 -15 -10z"/>
<path d="M1346 711 c-9 -14 4 -40 25 -52 15 -8 21 -6 26 7 12 31 -35 72 -51
45z"/>
<path d="M1275 661 c-10 -17 12 -21 25 -6 10 12 10 15 -3 15 -9 0 -18 -4 -22
-9z"/>
<path d="M1202 619 c2 -6 8 -10 13 -10 5 0 11 4 13 10 2 6 -4 11 -13 11 -9 0
-15 -5 -13 -11z"/>
<path d="M876 635 c-3 -9 0 -15 9 -15 16 0 20 16 6 24 -5 3 -11 -1 -15 -9z"/>
<path d="M734 1594 c-18 -14 -18 -15 4 -4 12 6 22 13 22 15 0 8 -5 6 -26 -11z"/>
<path d="M1633 1516 c-24 -21 -26 -27 -18 -52 14 -39 57 -54 85 -29 27 24 26
70 -2 89 -29 21 -32 20 -65 -8z m65 -8 c21 -21 14 -57 -13 -70 -22 -10 -29 -9
-47 10 -19 18 -20 25 -10 47 13 27 49 34 70 13z"/>
<path d="M1647 1504 c-4 -4 -7 -18 -7 -32 0 -19 3 -22 13 -13 9 7 17 7 23 1 7
-7 10 0 9 17 0 27 -22 42 -38 27z"/>
</g>
</svg>
