<?xml version="1.0" standalone="no"?>
<!DOCTYPE svg PUBLIC "-//W3C//DTD SVG 20010904//EN"
 "http://www.w3.org/TR/2001/REC-SVG-20010904/DTD/svg10.dtd">
<svg version="1.0" xmlns="http://www.w3.org/2000/svg"
 width="300.000000pt" height="300.000000pt" viewBox="0 0 300.000000 300.000000"
 preserveAspectRatio="xMidYMid meet">

<g transform="translate(0.000000,300.000000) scale(0.100000,-0.100000)"
fill="#000000" stroke="none">
<path d="M1500 1371 c0 -177 0 -180 25 -209 29 -34 63 -44 112 -30 29 8 34 13
29 31 -3 12 -6 27 -6 32 0 6 -17 10 -37 10 l-38 0 -3 83 -3 82 31 0 c28 0 30
3 30 35 0 32 -2 35 -29 35 -29 0 -30 2 -33 53 l-3 52 -37 3 -38 3 0 -180z"/>
<path d="M613 1469 c-89 -27 -83 -153 9 -189 73 -29 100 -80 53 -102 -23 -11
-55 -5 -112 18 -9 4 -13 -4 -13 -24 0 -26 5 -32 35 -42 77 -25 170 -6 195 39
5 11 10 36 10 55 0 38 -19 57 -112 111 -48 27 -59 50 -36 73 16 16 67 15 98
-3 36 -20 40 -19 40 15 0 23 -6 33 -23 39 -40 16 -110 20 -144 10z"/>
<path d="M916 1420 c-64 -20 -100 -79 -94 -155 5 -62 37 -111 84 -131 34 -14
49 -11 117 24 4 2 7 -3 7 -12 0 -12 10 -16 40 -16 l41 0 -3 148 -3 147 -80 2
c-44 1 -93 -2 -109 -7z m114 -118 c0 -88 -15 -114 -66 -114 -36 0 -54 26 -54
78 0 76 29 112 93 113 l27 1 0 -78z"/>
<path d="M1160 1280 l0 -150 40 0 40 0 0 93 c0 89 1 94 28 120 33 32 67 35 82
8 5 -11 10 -65 10 -120 l0 -101 41 0 41 0 -4 124 c-3 116 -5 126 -27 150 -31
33 -93 35 -131 6 -32 -25 -40 -25 -40 0 0 17 -7 20 -40 20 l-40 0 0 -150z"/>
<path d="M1783 1419 c-117 -34 -122 -229 -8 -283 37 -18 39 -18 74 0 20 10 39
20 44 22 4 2 7 -3 7 -12 0 -12 10 -16 40 -16 l41 0 -3 148 -3 147 -80 2 c-44
1 -94 -3 -112 -8z m117 -117 c0 -96 -16 -118 -83 -113 -25 1 -49 63 -41 107 8
42 55 84 95 84 l29 0 0 -78z"/>
<path d="M2030 1280 l0 -150 40 0 40 0 0 98 c0 90 2 100 23 120 26 24 57 28
75 10 8 -8 12 -49 12 -121 l0 -108 38 3 37 3 3 104 c3 111 11 130 58 131 38 0
44 -19 44 -132 l0 -108 40 0 40 0 0 124 c0 117 -1 124 -25 150 -31 34 -99 37
-139 5 l-27 -21 -23 21 c-29 27 -85 28 -119 1 -14 -11 -28 -20 -31 -20 -3 0
-6 9 -6 20 0 17 -7 20 -40 20 l-40 0 0 -150z"/>
</g>
</svg>
