<?xml version="1.0" standalone="no"?>
<!DOCTYPE svg PUBLIC "-//W3C//DTD SVG 20010904//EN"
 "http://www.w3.org/TR/2001/REC-SVG-20010904/DTD/svg10.dtd">
<svg version="1.0" xmlns="http://www.w3.org/2000/svg"
 width="600.000000pt" height="464.000000pt" viewBox="0 0 600.000000 464.000000"
 preserveAspectRatio="xMidYMid meet">

<g transform="translate(0.000000,464.000000) scale(0.100000,-0.100000)"
fill="#000000" stroke="none">
<path d="M5995 2320 c0 -1279 1 -1802 2 -1163 2 640 2 1686 0 2325 -1 640 -2
117 -2 -1162z"/>
<path d="M998 2293 c-119 -45 -178 -120 -178 -228 0 -98 51 -174 150 -225 22
-11 81 -33 131 -50 122 -39 176 -71 184 -110 13 -61 -49 -110 -140 -110 -52 0
-156 32 -196 61 l-26 18 -62 -55 c-33 -31 -61 -59 -61 -62 1 -14 107 -71 165
-88 44 -14 93 -19 180 -19 109 0 125 2 175 26 107 52 153 115 153 214 0 130
-71 199 -272 269 -56 20 -111 41 -124 47 -74 38 -88 95 -37 144 26 25 40 30
98 33 59 3 74 0 126 -27 l60 -30 58 51 c32 27 58 53 58 57 0 15 -36 40 -95 68
-53 25 -73 28 -180 30 -95 3 -130 0 -167 -14z"/>
<path d="M4500 1876 l0 -436 85 0 85 0 0 205 c0 138 3 205 11 205 8 0 390
-324 492 -418 l27 -26 0 447 0 447 -90 0 -90 0 0 -210 c0 -121 -4 -210 -9
-210 -5 0 -117 94 -249 209 -132 115 -245 212 -251 215 -8 5 -11 -111 -11
-428z"/>
<path d="M1837 2294 c-4 -4 -7 -200 -7 -436 l0 -429 93 3 92 3 3 188 2 187
175 0 175 0 0 -190 0 -190 90 0 90 0 0 435 0 435 -90 0 -90 0 -2 -172 -3 -173
-172 -3 -173 -2 -2 172 -3 173 -85 3 c-47 1 -89 0 -93 -4z"/>
<path d="M2910 1865 l0 -435 338 2 337 3 0 70 0 70 -250 5 -250 5 0 115 0 115
233 3 232 2 0 65 0 65 -232 2 -233 3 0 100 0 100 250 5 250 5 0 65 0 65 -337
3 -338 2 0 -435z"/>
<path d="M3960 1865 l0 -435 90 0 90 0 0 435 0 435 -90 0 -90 0 0 -435z"/>
</g>
</svg>
